PathFileType	4	(X/Y/Z)	OpenSim_Sub06_EMGStiffKnee_Magnet.trc
DataRate	CameraRate	NumFrames	NumMarkers	Units	OrigDataRate	OrigDataStartFrame	OrigNumFrames
100	100	13	8	m	100	680	5432
Frame#	Time	torso_imu_offset_imu	pelvis_imu_offset_imu	tibia_r_imu_offset_imu	femur_r_imu_offset_imu	tibia_l_imu_offset_imu	femur_l_imu_offset_imu	toes_r_imu_offset_imu	toes_l_imu_offset_imu
				X1	Y1	Z1	X2	Y2	Z2	X3	Y3	Z3	X4	Y4	Z4	X5	Y5	Z5	X6	Y6	Z6	X7	Y7	Z7	X8		Y8	Z8	

680	6.79000000	-0.93432600	-0.15429700	0.05102500	-0.49853500	0.21655300	-0.75024400	-0.61572300	-0.47168000	-0.21411100	-0.78002900	-0.25000000	0.10278300	-0.45678700	0.67871100	0.07836900	-0.58447300	0.47192400	0.34204100	-0.57617200	-0.18457000	-0.49218800	-0.77710000	-0.02099600	-0.25170900
681	6.80000000	-0.93432600	-0.15649400	0.04882800	-0.48999000	0.21240200	-0.74780300	-0.60058600	-0.48852500	-0.20214800	-0.78637700	-0.24365200	0.09790000	-0.43701200	0.69213900	0.07299800	-0.58447300	0.47192400	0.35546900	-0.58081100	-0.17431600	-0.49438500	-0.78881800	-0.00585900	-0.22045900
682	6.81000000	-0.93627900	-0.16284200	0.04907200	-0.49438500	0.21655300	-0.75244100	-0.58764600	-0.49877900	-0.19067400	-0.78442400	-0.24169900	0.10717800	-0.41967800	0.70532200	0.08105500	-0.59497100	0.45874000	0.35791000	-0.58276400	-0.17236300	-0.48828100	-0.79614300	0.00927700	-0.19580100
683	6.82000000	-0.93652300	-0.15234400	0.05297900	-0.49389600	0.20385700	-0.75903300	-0.58300800	-0.51342800	-0.17895500	-0.78198200	-0.25195300	0.10742200	-0.39965800	0.71411100	0.08252000	-0.60742200	0.43676800	0.35376000	-0.58300800	-0.17041000	-0.48193400	-0.80322300	0.02221700	-0.15966800
684	6.83000000	-0.94287100	-0.15429700	0.05322300	-0.49585000	0.19751000	-0.75634800	-0.58252000	-0.52392600	-0.17431600	-0.78002900	-0.25195300	0.10742200	-0.38647500	0.71850600	0.08886700	-0.62231400	0.42358400	0.34497100	-0.58496100	-0.17041000	-0.48608400	-0.80615200	0.03955100	-0.12377900
685	6.84000000	-0.94506800	-0.15234400	0.05078100	-0.49121100	0.18505900	-0.76293900	-0.57836900	-0.52392600	-0.16748000	-0.77539100	-0.26635700	0.11499000	-0.36230500	0.73388700	0.08349600	-0.63305700	0.41259800	0.33154300	-0.58911100	-0.17651400	-0.48413100	-0.81543000	0.05029300	-0.08569300
686	6.85000000	-0.93652300	-0.15429700	0.05761700	-0.49292000	0.17041000	-0.76953100	-0.58252000	-0.52612300	-0.16528300	-0.76660200	-0.27880900	0.10400400	-0.34448200	0.74047900	0.08960000	-0.65478500	0.39917000	0.32495100	-0.58691400	-0.17456100	-0.47778300	-0.81372100	0.06323200	-0.05444300
687	6.86000000	-0.94506800	-0.15014600	0.06176800	-0.49047900	0.16210900	-0.77148400	-0.57836900	-0.52612300	-0.16528300	-0.75756800	-0.29736300	0.11621100	-0.32470700	0.75366200	0.08642600	-0.66503900	0.38183600	0.31176800	-0.58886700	-0.18261700	-0.48388700	-0.81640600	0.07421900	-0.02294900
688	6.87000000	-0.93896500	-0.14599600	0.05932600	-0.48999000	0.15161100	-0.77563500	-0.57812500	-0.53027300	-0.17407200	-0.75097700	-0.31176800	0.10986300	-0.31127900	0.75610400	0.08154300	-0.68017600	0.36840800	0.30297900	-0.59106400	-0.18066400	-0.48193400	-0.81469700	0.09155300	0.00170900
689	6.88000000	-0.94531200	-0.14599600	0.06591800	-0.48754900	0.14111300	-0.77758800	-0.58007800	-0.53637700	-0.17602500	-0.74633800	-0.32421900	0.11499000	-0.29370100	0.76489300	0.08325200	-0.69262700	0.35083000	0.30102500	-0.58886700	-0.18286100	-0.47778300	-0.80835000	0.09594700	0.01977500
690	6.89000000	-0.93896500	-0.14599600	0.06811500	-0.49169900	0.13256800	-0.78662100	-0.57397500	-0.53222700	-0.18066400	-0.74414100	-0.33252000	0.10839800	-0.28271500	0.76928700	0.08056600	-0.69458000	0.34228500	0.30102500	-0.58471700	-0.18066400	-0.47973600	-0.81347700	0.11352500	0.02636700
691	6.90000000	-0.94531200	-0.14819300	0.07055700	-0.48681600	0.12011700	-0.78613300	-0.56958000	-0.53637700	-0.18261700	-0.73754900	-0.34082000	0.10864300	-0.26953100	0.77368200	0.06225600	-0.69628900	0.32495100	0.29882800	-0.59497100	-0.18481400	-0.47778300	-0.80957000	0.13110400	0.01513700
692	6.91000000	-0.94311500	-0.14794900	0.06616200	-0.48266600	0.12011700	-0.78857400	-0.56079100	-0.54907200	-0.17773400	-0.73535200	-0.34692400	0.10888700	-0.25610400	0.77612300	0.04418900	-0.70922900	0.31591800	0.29687500	-0.59106400	-0.18066400	-0.47778300	-0.80542000	0.14233400	0.01293900
